<?xml version="1.0" encoding="UTF-8" standalone="no"?>
<!-- Created with Inkscape (http://www.inkscape.org/) -->

<svg
   xmlns:dc="http://purl.org/dc/elements/1.1/"
   xmlns:cc="http://creativecommons.org/ns#"
   xmlns:rdf="http://www.w3.org/1999/02/22-rdf-syntax-ns#"
   xmlns:svg="http://www.w3.org/2000/svg"
   xmlns="http://www.w3.org/2000/svg"
   xmlns:sodipodi="http://sodipodi.sourceforge.net/DTD/sodipodi-0.dtd"
   xmlns:inkscape="http://www.inkscape.org/namespaces/inkscape"
   width="72.90052mm"
   height="19.44278mm"
   viewBox="0 0 72.900521 19.442779"
   version="1.1"
   id="svg8"
   inkscape:version="0.92.5 (2060ec1f9f, 2020-04-08)"
   sodipodi:docname="beach-logo-unflattened.svg"
   inkscape:export-filename="C:\Users\Ben\Desktop\nest-logo.png"
   inkscape:export-xdpi="186.67"
   inkscape:export-ydpi="186.67">
  <defs
     id="defs2">
    <clipPath
       clipPathUnits="userSpaceOnUse"
       id="clipPath894">
      <circle
         style="opacity:0.44600004;fill:#aaeeff;fill-opacity:1;fill-rule:evenodd;stroke:#ffffff;stroke-width:3.30708861;stroke-miterlimit:4;stroke-dasharray:none;stroke-opacity:1"
         id="circle896"
         cx="145.48494"
         cy="25.249096"
         r="19.243013"
         transform="matrix(-1.4684754e-8,1,1,1.4684754e-8,0,0)" />
    </clipPath>
    <clipPath
       clipPathUnits="userSpaceOnUse"
       id="clipPath898">
      <circle
         style="opacity:0.44600004;fill:#aaeeff;fill-opacity:1;fill-rule:evenodd;stroke:#ffffff;stroke-width:0.67205238;stroke-miterlimit:4;stroke-dasharray:none;stroke-opacity:1"
         id="circle900"
         cx="-25.92448"
         cy="-20.231806"
         r="3.9104829"
         transform="matrix(-0.8660254,0.5,0.5,0.8660254,0,0)" />
    </clipPath>
    <clipPath
       clipPathUnits="userSpaceOnUse"
       id="clipPath902">
      <circle
         style="opacity:0.44600004;fill:#aaeeff;fill-opacity:1;fill-rule:evenodd;stroke:#ffffff;stroke-width:0.67205238;stroke-miterlimit:4;stroke-dasharray:none;stroke-opacity:1"
         id="circle904"
         cx="-25.92448"
         cy="-20.231806"
         r="3.9104829"
         transform="matrix(-0.8660254,0.5,0.5,0.8660254,0,0)" />
    </clipPath>
    <clipPath
       clipPathUnits="userSpaceOnUse"
       id="clipPath906">
      <circle
         style="opacity:0.44600004;fill:#aaeeff;fill-opacity:1;fill-rule:evenodd;stroke:#ffffff;stroke-width:3.30708861;stroke-miterlimit:4;stroke-dasharray:none;stroke-opacity:1"
         id="circle908"
         cx="145.48494"
         cy="70.000916"
         r="19.243013"
         transform="matrix(-1.4684754e-8,1,1,1.4684754e-8,0,0)" />
    </clipPath>
    <clipPath
       clipPathUnits="userSpaceOnUse"
       id="clipPath910">
      <circle
         style="opacity:0.44600004;fill:#aaeeff;fill-opacity:1;fill-rule:evenodd;stroke:#ffffff;stroke-width:3.30708838;stroke-miterlimit:4;stroke-dasharray:none;stroke-opacity:1"
         id="circle912"
         cx="106.91417"
         cy="47.625004"
         r="19.243013"
         transform="matrix(0,1,1,0,0,0)" />
    </clipPath>
    <clipPath
       clipPathUnits="userSpaceOnUse"
       id="clipPath914">
      <circle
         style="opacity:0.44600004;fill:#aaeeff;fill-opacity:1;fill-rule:evenodd;stroke:#ffffff;stroke-width:3.30708838;stroke-miterlimit:4;stroke-dasharray:none;stroke-opacity:1"
         id="circle916"
         cx="-106.91417"
         cy="47.625011"
         r="19.243013"
         transform="rotate(-89.999999)" />
    </clipPath>
  </defs>
  <sodipodi:namedview
     id="base"
     pagecolor="#ffffff"
     bordercolor="#666666"
     borderopacity="1.0"
     inkscape:pageopacity="0.0"
     inkscape:pageshadow="2"
     inkscape:zoom="2.8"
     inkscape:cx="156.49408"
     inkscape:cy="88.879672"
     inkscape:document-units="mm"
     inkscape:current-layer="layer1"
     showgrid="false"
     inkscape:window-width="1920"
     inkscape:window-height="1027"
     inkscape:window-x="-8"
     inkscape:window-y="-8"
     inkscape:window-maximized="1"
     fit-margin-top="0"
     fit-margin-left="0"
     fit-margin-right="0"
     fit-margin-bottom="0" />
  <metadata
     id="metadata5">
    <rdf:RDF>
      <cc:Work
         rdf:about="">
        <dc:format>image/svg+xml</dc:format>
        <dc:type
           rdf:resource="http://purl.org/dc/dcmitype/StillImage" />
        <dc:title />
      </cc:Work>
    </rdf:RDF>
  </metadata>
  <g
     inkscape:label="Layer 1"
     inkscape:groupmode="layer"
     id="layer1"
     transform="translate(13.748444,-7.5659016)">
    <flowRoot
       xml:space="preserve"
       id="flowRoot842"
       style="font-style:normal;font-variant:normal;font-weight:normal;font-stretch:normal;font-size:40px;line-height:1.25;font-family:Corbel;-inkscape-font-specification:Corbel;letter-spacing:0px;word-spacing:0px;fill:#c7cbd3;fill-opacity:1;stroke:none"
       transform="matrix(0.51365858,0,0,0.51365858,-34.487278,6.8395563)"><flowRegion
         id="flowRegion844"
         style="font-style:normal;font-variant:normal;font-weight:normal;font-stretch:normal;font-family:Corbel;-inkscape-font-specification:Corbel;fill:#c7cbd3;fill-opacity:1"><rect
           id="rect846"
           width="205.56604"
           height="76.771591"
           x="69.700523"
           y="-5.0507627"
           style="font-style:normal;font-variant:normal;font-weight:normal;font-stretch:normal;font-family:Corbel;-inkscape-font-specification:Corbel;fill:#c7cbd3;fill-opacity:1" /></flowRegion><flowPara
         id="flowPara848"
         style="font-style:normal;font-variant:normal;font-weight:bold;font-stretch:normal;font-family:Corbel;-inkscape-font-specification:'Corbel Bold';fill:#c7cbd3;fill-opacity:1">beach.js</flowPara></flowRoot>    <path
       style="fill:#efefef;fill-opacity:1;stroke:none;stroke-width:0.21205916px;stroke-linecap:butt;stroke-linejoin:miter;stroke-opacity:1"
       d="M -0.16922946,11.450047 C -2.5376083,6.6819038 -9.2064641,5.9140562 -12.272214,11.342941 c -3.268225,7.513184 1.979162,11.712483 6.2121518,11.460348 7.1160923,-0.6719 7.4867771,-7.242661 5.89083274,-11.353242 z"
       id="path848"
       inkscape:connector-curvature="0"
       sodipodi:nodetypes="cccc" />
    <path
       id="path886-6"
       style="opacity:1;fill:#e3dedb;fill-opacity:1;stroke:none;stroke-width:0.92972082;stroke-miterlimit:4;stroke-dasharray:none;stroke-opacity:1"
       d="m -10.350687,20.151268 a 0.39761094,1.9880547 60 0 0 1.9205119,-0.649686 0.39761094,1.9880547 60 0 0 1.5229005,-1.338368 0.39761094,1.9880547 60 0 0 -1.9205115,0.649686 0.39761094,1.9880547 60 0 0 -1.5229009,1.338368 z m 0.8170339,-3.604667 a 2.7847574,0.53553025 29.099901 0 0 2.6936929,0.88639 2.7847574,0.53553025 29.099901 0 0 -2.1727999,-1.822253 2.7847574,0.53553025 29.099901 0 0 -2.6936909,-0.886391 2.7847574,0.53553025 29.099901 0 0 2.1727979,1.822254 z m 7.2722715,3.604666 a 1.9880547,0.39761094 30 0 1 -1.9205111,-0.649686 1.9880547,0.39761094 30 0 1 -1.5229009,-1.338368 1.9880547,0.39761094 30 0 1 1.9205116,0.649687 1.9880547,0.39761094 30 0 1 1.5229004,1.338367 z m -0.8170348,-3.604665 a 0.53553025,2.7847574 60.900099 0 1 -2.6936917,0.88639 0.53553025,2.7847574 60.900099 0 1 2.1727992,-1.822253 0.53553025,2.7847574 60.900099 0 1 2.69369244,-0.886391 0.53553025,2.7847574 60.900099 0 1 -2.17279994,1.822254 z m -2.5578728,-4.07822 a 0.66941281,4.0968067 0 0 1 -0.6694128,4.096807 0.66941281,4.0968067 0 0 1 -0.6694132,-4.096807 0.66941281,4.0968067 0 0 1 0.6694132,-4.0968051 0.66941281,4.0968067 0 0 1 0.6694128,4.0968051 z"
       inkscape:connector-curvature="0" />
  </g>
</svg>
