<?xml version="1.0" encoding="UTF-8" standalone="no"?>
<!-- Created with Inkscape (http://www.inkscape.org/) -->

<svg
   xmlns:dc="http://purl.org/dc/elements/1.1/"
   xmlns:cc="http://creativecommons.org/ns#"
   xmlns:rdf="http://www.w3.org/1999/02/22-rdf-syntax-ns#"
   xmlns:svg="http://www.w3.org/2000/svg"
   xmlns="http://www.w3.org/2000/svg"
   xmlns:sodipodi="http://sodipodi.sourceforge.net/DTD/sodipodi-0.dtd"
   xmlns:inkscape="http://www.inkscape.org/namespaces/inkscape"
   width="87.17392mm"
   height="19.44309mm"
   viewBox="0 0 87.17392 19.44309"
   version="1.1"
   id="svg8"
   inkscape:version="0.92.5 (2060ec1f9f, 2020-04-08)"
   sodipodi:docname="beach-logo.svg"
   inkscape:export-filename="C:\Users\Ben\Desktop\nest-logo.png"
   inkscape:export-xdpi="186.67"
   inkscape:export-ydpi="186.67">
  <defs
     id="defs2">
    <clipPath
       clipPathUnits="userSpaceOnUse"
       id="clipPath894">
      <circle
         style="opacity:0.44600004;fill:#aaeeff;fill-opacity:1;fill-rule:evenodd;stroke:#ffffff;stroke-width:3.30708861;stroke-miterlimit:4;stroke-dasharray:none;stroke-opacity:1"
         id="circle896"
         cx="145.48494"
         cy="25.249096"
         r="19.243013"
         transform="matrix(-1.4684754e-8,1,1,1.4684754e-8,0,0)" />
    </clipPath>
    <clipPath
       clipPathUnits="userSpaceOnUse"
       id="clipPath898">
      <circle
         style="opacity:0.44600004;fill:#aaeeff;fill-opacity:1;fill-rule:evenodd;stroke:#ffffff;stroke-width:0.67205238;stroke-miterlimit:4;stroke-dasharray:none;stroke-opacity:1"
         id="circle900"
         cx="-25.92448"
         cy="-20.231806"
         r="3.9104829"
         transform="matrix(-0.8660254,0.5,0.5,0.8660254,0,0)" />
    </clipPath>
    <clipPath
       clipPathUnits="userSpaceOnUse"
       id="clipPath902">
      <circle
         style="opacity:0.44600004;fill:#aaeeff;fill-opacity:1;fill-rule:evenodd;stroke:#ffffff;stroke-width:0.67205238;stroke-miterlimit:4;stroke-dasharray:none;stroke-opacity:1"
         id="circle904"
         cx="-25.92448"
         cy="-20.231806"
         r="3.9104829"
         transform="matrix(-0.8660254,0.5,0.5,0.8660254,0,0)" />
    </clipPath>
    <clipPath
       clipPathUnits="userSpaceOnUse"
       id="clipPath906">
      <circle
         style="opacity:0.44600004;fill:#aaeeff;fill-opacity:1;fill-rule:evenodd;stroke:#ffffff;stroke-width:3.30708861;stroke-miterlimit:4;stroke-dasharray:none;stroke-opacity:1"
         id="circle908"
         cx="145.48494"
         cy="70.000916"
         r="19.243013"
         transform="matrix(-1.4684754e-8,1,1,1.4684754e-8,0,0)" />
    </clipPath>
    <clipPath
       clipPathUnits="userSpaceOnUse"
       id="clipPath910">
      <circle
         style="opacity:0.44600004;fill:#aaeeff;fill-opacity:1;fill-rule:evenodd;stroke:#ffffff;stroke-width:3.30708838;stroke-miterlimit:4;stroke-dasharray:none;stroke-opacity:1"
         id="circle912"
         cx="106.91417"
         cy="47.625004"
         r="19.243013"
         transform="matrix(0,1,1,0,0,0)" />
    </clipPath>
    <clipPath
       clipPathUnits="userSpaceOnUse"
       id="clipPath914">
      <circle
         style="opacity:0.44600004;fill:#aaeeff;fill-opacity:1;fill-rule:evenodd;stroke:#ffffff;stroke-width:3.30708838;stroke-miterlimit:4;stroke-dasharray:none;stroke-opacity:1"
         id="circle916"
         cx="-106.91417"
         cy="47.625011"
         r="19.243013"
         transform="rotate(-89.999999)" />
    </clipPath>
  </defs>
  <sodipodi:namedview
     id="base"
     pagecolor="#ffffff"
     bordercolor="#666666"
     borderopacity="1.0"
     inkscape:pageopacity="0.0"
     inkscape:pageshadow="2"
     inkscape:zoom="1.979899"
     inkscape:cx="76.904746"
     inkscape:cy="18.667846"
     inkscape:document-units="mm"
     inkscape:current-layer="layer1"
     showgrid="false"
     inkscape:window-width="1920"
     inkscape:window-height="1027"
     inkscape:window-x="1912"
     inkscape:window-y="-8"
     inkscape:window-maximized="1"
     fit-margin-top="0"
     fit-margin-left="0"
     fit-margin-right="0"
     fit-margin-bottom="0" />
  <metadata
     id="metadata5">
    <rdf:RDF>
      <cc:Work
         rdf:about="">
        <dc:format>image/svg+xml</dc:format>
        <dc:type
           rdf:resource="http://purl.org/dc/dcmitype/StillImage" />
        <dc:title />
      </cc:Work>
    </rdf:RDF>
  </metadata>
  <g
     inkscape:label="Layer 1"
     inkscape:groupmode="layer"
     id="layer1"
     transform="translate(13.503204,-7.665433)">
    <g
       aria-label="beach.js"
       transform="matrix(0.51365859,0,0,0.51365859,-34.696195,6.9393974)"
       style="font-style:normal;font-variant:normal;font-weight:normal;font-stretch:normal;font-size:40px;line-height:1.25;font-family:Corbel;-inkscape-font-specification:Corbel;letter-spacing:0px;word-spacing:0px;fill:#c7cbd3;fill-opacity:1;stroke:none"
       id="flowRoot842">
      <path
         d="m 90.423828,19.910156 q 0,2.558594 -0.742187,4.53125 -0.742188,1.972656 -1.953125,3.242188 -1.191407,1.269531 -2.695313,1.894531 -1.503906,0.605469 -3.027344,0.605469 -1.074218,0 -1.933593,-0.273438 Q 79.212891,29.65625 78.568359,29.265625 77.923828,28.875 77.474609,28.445312 77.044922,28.015625 76.791016,27.683594 h -0.07813 l -0.449219,2.011718 h -3.828125 q 0.03906,-0.839843 0.05859,-2.070312 0.03906,-1.25 0.03906,-2.363281 V 1.4140625 h 4.628906 v 7.8710938 q 0,0.8398437 -0.01953,1.5624997 0,0.703125 -0.01953,1.09375 h 0.03906 q 0.449219,-0.3125 0.976563,-0.605468 0.527344,-0.292969 1.152344,-0.527344 0.625,-0.234375 1.347656,-0.371094 0.722656,-0.136719 1.523437,-0.136719 1.582032,0 3.066407,0.585938 1.503906,0.566406 2.65625,1.757812 1.171875,1.171875 1.855468,3.027344 0.683594,1.835937 0.683594,4.238281 z m -4.785156,0.234375 q 0,-1.777344 -0.429688,-3.046875 -0.429687,-1.289062 -1.132812,-1.953125 -0.683594,-0.683593 -1.445313,-0.917968 -0.742187,-0.234375 -1.484375,-0.234375 -1.015625,0 -2.070312,0.410156 -1.054688,0.410156 -1.914063,1.09375 v 9.0625 q 0.273438,0.3125 0.664063,0.664062 0.410156,0.332031 0.898437,0.625 0.507813,0.273438 1.09375,0.46875 0.585938,0.175781 1.25,0.175781 1.132813,0 1.972657,-0.449218 0.859375,-0.46875 1.425781,-1.308594 0.585937,-0.839844 0.878906,-1.992188 0.292969,-1.171875 0.292969,-2.597656 z"
         style="font-style:normal;font-variant:normal;font-weight:bold;font-stretch:normal;font-family:Corbel;-inkscape-font-specification:'Corbel Bold';fill:#c7cbd3;fill-opacity:1"
         id="path830" />
      <path
         d="m 104.25195,26.453125 q 1.34766,0 2.8125,-0.273438 1.46485,-0.273437 2.96875,-0.78125 v 3.691407 q -0.89843,0.390625 -2.7539,0.742187 -1.85547,0.351563 -3.84766,0.351563 -2.01172,0 -3.828124,-0.507813 -1.796875,-0.527344 -3.144532,-1.679687 -1.347656,-1.152344 -2.148437,-2.988282 -0.78125,-1.835937 -0.78125,-4.453125 0,-2.578125 0.742187,-4.511718 0.742188,-1.933594 1.992188,-3.203125 1.25,-1.269531 2.851562,-1.894531 1.621096,-0.644532 3.339846,-0.644532 1.79687,0 3.30078,0.546875 1.52344,0.546875 2.61719,1.71875 1.11328,1.171875 1.71875,3.027344 0.625,1.835937 0.625,4.355469 -0.0195,0.976562 -0.0586,1.660156 H 98.255859 q 0.09766,1.308594 0.585938,2.246094 0.488281,0.917968 1.269533,1.503906 0.80078,0.566406 1.85547,0.839844 1.05468,0.253906 2.28515,0.253906 z m -1.85547,-12.539062 q -0.8789,0 -1.5625,0.332031 -0.68359,0.3125 -1.191402,0.878906 -0.488281,0.546875 -0.78125,1.289062 -0.292969,0.742188 -0.390625,1.582032 h 7.441407 q 0,-0.839844 -0.23438,-1.582032 -0.21484,-0.742187 -0.66406,-1.289062 -0.42969,-0.566406 -1.09375,-0.878906 -0.64453,-0.332031 -1.52344,-0.332031 z"
         style="font-style:normal;font-variant:normal;font-weight:bold;font-stretch:normal;font-family:Corbel;-inkscape-font-specification:'Corbel Bold';fill:#c7cbd3;fill-opacity:1"
         id="path832" />
      <path
         d="m 126.18555,27.683594 h -0.0781 q -0.39062,0.410156 -0.9375,0.839843 -0.54687,0.429688 -1.25,0.820313 -0.70312,0.371094 -1.5625,0.605469 -0.85937,0.234375 -1.85547,0.234375 -1.34765,0 -2.51953,-0.429688 -1.17187,-0.410156 -2.01172,-1.191406 -0.83984,-0.800781 -1.32812,-1.914063 -0.46875,-1.132812 -0.46875,-2.519531 0,-1.523437 0.54687,-2.734375 0.56641,-1.210937 1.5625,-2.050781 0.9961,-0.839844 2.38282,-1.269531 1.38671,-0.449219 3.0664,-0.449219 1.23047,0 2.26563,0.15625 1.03515,0.15625 1.8164,0.371094 v -0.761719 q 0,-0.664063 -0.23437,-1.269531 -0.21485,-0.625 -0.72266,-1.09375 -0.48828,-0.488281 -1.28906,-0.761719 -0.80078,-0.292969 -1.95313,-0.292969 -1.40625,0 -2.8125,0.3125 -1.40625,0.3125 -3.04687,0.9375 v -3.613281 q 1.42578,-0.625 3.02734,-0.957031 1.60157,-0.332031 3.35938,-0.351563 2.07031,0 3.61328,0.507813 1.5625,0.507812 2.59766,1.40625 1.05468,0.878906 1.5625,2.089844 0.52734,1.210937 0.52734,2.636718 v 7.128906 q 0,1.875 0.0391,3.222657 0.0391,1.347656 0.0781,2.402343 h -4.17969 z m -0.3711,-6.054688 q -0.66406,-0.15625 -1.52343,-0.273437 -0.85938,-0.136719 -1.73829,-0.136719 -1.69921,0 -2.69531,0.683594 -0.97656,0.664062 -0.97656,2.050781 0,0.644531 0.21484,1.132812 0.23438,0.46875 0.60547,0.78125 0.39063,0.3125 0.89844,0.46875 0.50781,0.15625 1.07422,0.15625 0.70312,0 1.32812,-0.175781 0.625,-0.195312 1.15235,-0.46875 0.52734,-0.292969 0.9375,-0.644531 0.42968,-0.351563 0.72265,-0.683594 z"
         style="font-style:normal;font-variant:normal;font-weight:bold;font-stretch:normal;font-family:Corbel;-inkscape-font-specification:'Corbel Bold';fill:#c7cbd3;fill-opacity:1"
         id="path834" />
      <path
         d="m 149.31055,29.285156 q -0.87891,0.371094 -2.14844,0.625 -1.26953,0.273438 -2.67578,0.273438 -2.05078,0 -3.82813,-0.585938 -1.77734,-0.585937 -3.10547,-1.777344 -1.32812,-1.191406 -2.08984,-3.007812 -0.76172,-1.835938 -0.76172,-4.277344 0,-2.734375 0.87891,-4.6875 0.8789,-1.953125 2.26562,-3.164062 1.40625,-1.230469 3.14453,-1.796875 1.75782,-0.585938 3.45704,-0.585938 1.26953,0 2.4414,0.234375 1.17188,0.214844 2.12891,0.605469 v 3.769531 q -0.85938,-0.371093 -1.83594,-0.585937 -0.95703,-0.234375 -2.07031,-0.234375 -1.11328,0 -2.12891,0.351562 -1.01562,0.332032 -1.79687,1.074219 -0.78125,0.742187 -1.25,1.972656 -0.44922,1.210938 -0.44922,2.929688 0,1.25 0.35156,2.363281 0.35156,1.09375 1.01563,1.875 0.68359,0.78125 1.71875,1.269531 1.05468,0.46875 2.48046,0.46875 1.26954,0 2.30469,-0.253906 1.03516,-0.253906 1.95313,-0.625 z"
         style="font-style:normal;font-variant:normal;font-weight:bold;font-stretch:normal;font-family:Corbel;-inkscape-font-specification:'Corbel Bold';fill:#c7cbd3;fill-opacity:1"
         id="path836" />
      <path
         d="m 158.1582,9.1289063 q 0,1.4648437 -0.0586,2.4218747 -0.0391,0.9375 -0.15625,1.699219 h 0.0781 q 0.41016,-0.546875 0.9961,-1.09375 0.60547,-0.546875 1.30859,-0.9375 0.72266,-0.410156 1.6211,-0.664062 0.91796,-0.253907 2.01171,-0.253907 0.9375,0 1.81641,0.195313 0.89844,0.175781 1.66016,0.566406 0.78125,0.390625 1.40625,1.015625 0.64453,0.625 1.07422,1.484375 0.37109,0.742188 0.54687,1.679688 0.17578,0.937499 0.17578,2.285156 v 12.167968 h -4.6289 V 18.152344 q 0,-0.878907 -0.0781,-1.425782 -0.0781,-0.566406 -0.27344,-0.976562 -0.41015,-0.859375 -1.17187,-1.210937 -0.76172,-0.351563 -1.73828,-0.351563 -1.34766,0.01953 -2.5,0.644531 -1.13282,0.625 -2.08985,1.835938 v 13.027343 h -4.6289 V 1.4140625 h 4.6289 z"
         style="font-style:normal;font-variant:normal;font-weight:bold;font-stretch:normal;font-family:Corbel;-inkscape-font-specification:'Corbel Bold';fill:#c7cbd3;fill-opacity:1"
         id="path838" />
      <path
         d="m 176.43945,24.480469 h 5.25391 v 5.214843 h -5.25391 z"
         style="font-style:normal;font-variant:normal;font-weight:bold;font-stretch:normal;font-family:Corbel;-inkscape-font-specification:'Corbel Bold';fill:#c7cbd3;fill-opacity:1"
         id="path840" />
      <path
         d="m 192.78711,32.175781 q 0,2.65625 -0.83984,4.101563 -0.87891,1.523437 -2.57813,2.246093 -1.69922,0.742188 -4.02344,0.742188 -1.03515,0 -1.85547,-0.117188 -0.83984,-0.117187 -1.58203,-0.332031 v -3.789062 q 0.625,0.175781 1.40625,0.3125 0.76172,0.136718 1.46485,0.136718 0.9375,0 1.64062,-0.214843 0.70313,-0.214844 1.13281,-0.742188 0.33204,-0.390625 0.46875,-1.074219 0.13672,-0.683593 0.13672,-1.640625 V 10.769531 h 4.62891 z M 188.04102,1.4140625 h 4.86328 v 5.0195312 h -4.86328 z"
         style="font-style:normal;font-variant:normal;font-weight:bold;font-stretch:normal;font-family:Corbel;-inkscape-font-specification:'Corbel Bold';fill:#c7cbd3;fill-opacity:1"
         id="path842" />
      <path
         d="m 206.40039,24.207031 q 0,-0.605469 -0.35156,-0.996094 -0.33203,-0.390625 -0.89844,-0.644531 -0.56641,-0.273437 -1.30859,-0.46875 -0.72266,-0.195312 -1.52344,-0.390625 -1.01563,-0.273437 -1.95313,-0.625 -0.9375,-0.371094 -1.66015,-0.957031 -0.70313,-0.585938 -1.13281,-1.464844 -0.41016,-0.898437 -0.41016,-2.1875 0,-1.582031 0.56641,-2.734375 0.5664,-1.171875 1.52343,-1.933593 0.97657,-0.761719 2.2461,-1.132813 1.28906,-0.371094 2.71484,-0.371094 1.73828,0 3.26172,0.292969 1.52344,0.273438 2.75391,0.722656 v 3.769532 q -0.64454,-0.214844 -1.36719,-0.390625 -0.70313,-0.195313 -1.44531,-0.332032 -0.72266,-0.136718 -1.44532,-0.214843 -0.72265,-0.09766 -1.36718,-0.09766 -0.82032,0 -1.38672,0.15625 -0.56641,0.15625 -0.91797,0.429688 -0.35156,0.253906 -0.50781,0.605469 -0.15625,0.332031 -0.15625,0.703125 0,0.644531 0.33203,1.054687 0.35156,0.410156 0.95703,0.664062 0.60547,0.253907 1.26953,0.429688 0.66406,0.15625 1.28906,0.3125 0.97656,0.234375 1.95313,0.566406 0.97656,0.332031 1.75781,0.9375 0.78125,0.585938 1.26953,1.542969 0.50781,0.9375 0.50781,2.402344 0,1.601562 -0.60547,2.792968 -0.60546,1.191407 -1.69921,1.992188 -1.07422,0.78125 -2.59766,1.152344 -1.50391,0.390625 -3.32031,0.390625 -1.79688,0 -3.24219,-0.292969 -1.42578,-0.273438 -2.36328,-0.703125 v -3.730469 q 1.52344,0.566406 2.8125,0.78125 1.28906,0.195313 2.40234,0.195313 0.85938,0 1.60156,-0.117188 0.74219,-0.136719 1.26954,-0.410156 0.54687,-0.273438 0.85937,-0.683594 0.3125,-0.429687 0.3125,-1.015625 z"
         style="font-style:normal;font-variant:normal;font-weight:bold;font-stretch:normal;font-family:Corbel;-inkscape-font-specification:'Corbel Bold';fill:#c7cbd3;fill-opacity:1"
         id="path844" />
    </g>
    <path
       style="fill:#efefef;fill-opacity:1;stroke:none;stroke-width:0.21205917px;stroke-linecap:butt;stroke-linejoin:miter;stroke-opacity:1"
       d="M -0.37814575,11.549888 C -2.7465247,6.7817454 -9.4153807,6.0138974 -12.481131,11.442782 c -3.268226,7.513184 1.979162,11.712483 6.2121523,11.460348 7.11609195,-0.6719 7.486777,-7.242661 5.89083295,-11.353242 z"
       id="path848"
       inkscape:connector-curvature="0"
       sodipodi:nodetypes="cccc" />
    <path
       id="path886-6"
       style="opacity:1;fill:#e3dedb;fill-opacity:1;stroke:none;stroke-width:0.92972082;stroke-miterlimit:4;stroke-dasharray:none;stroke-opacity:1"
       d="m -10.559604,20.251109 a 0.39761094,1.9880547 60 0 0 1.9205123,-0.649686 0.39761094,1.9880547 60 0 0 1.5229,-1.338368 0.39761094,1.9880547 60 0 0 -1.920511,0.649686 0.39761094,1.9880547 60 0 0 -1.5229013,1.338368 z m 0.8170343,-3.604667 a 2.7847573,0.53553027 29.099901 0 0 2.693693,0.88639 2.7847573,0.53553027 29.099901 0 0 -2.1728,-1.822253 2.7847573,0.53553027 29.099901 0 0 -2.6936913,-0.886391 2.7847573,0.53553027 29.099901 0 0 2.1727983,1.822254 z m 7.272272,3.604666 a 1.9880547,0.39761094 30 0 1 -1.920512,-0.649686 1.9880547,0.39761094 30 0 1 -1.522901,-1.338368 1.9880547,0.39761094 30 0 1 1.920512,0.649687 1.9880547,0.39761094 30 0 1 1.522901,1.338367 z m -0.817035,-3.604665 a 0.53553027,2.7847573 60.900099 0 1 -2.693692,0.88639 0.53553027,2.7847573 60.900099 0 1 2.172799,-1.822253 0.53553027,2.7847573 60.900099 0 1 2.693693,-0.886391 0.53553027,2.7847573 60.900099 0 1 -2.1728,1.822254 z m -2.557873,-4.07822 a 0.66941282,4.0968067 0 0 1 -0.669413,4.096807 0.66941282,4.0968067 0 0 1 -0.669413,-4.096807 0.66941282,4.0968067 0 0 1 0.669413,-4.0968046 0.66941282,4.0968067 0 0 1 0.669413,4.0968046 z"
       inkscape:connector-curvature="0" />
  </g>
</svg>
